<?xml version="1.0" encoding="UTF-8"?>
<svg width="36px" height="36px" viewBox="0 0 36 36" version="1.1" xmlns="http://www.w3.org/2000/svg" xmlns:xlink="http://www.w3.org/1999/xlink">
    <title>74C6DDF1-1BC7-491F-8327-EF1141F2DDE2xxxhdpi/</title>
    <defs>
        <linearGradient x1="0%" y1="0%" x2="101.719666%" y2="100%" id="linearGradient-1">
            <stop stop-color="#415CF2" offset="0%"></stop>
            <stop stop-color="#6E84FD" offset="100%"></stop>
        </linearGradient>
    </defs>
    <g id="PDF-Player" stroke="none" stroke-width="1" fill="none" fill-rule="evenodd">
        <g id="endgame-l2" transform="translate(-560.000000, -117.000000)">
            <g id="Group-7" transform="translate(356.000000, 117.000000)">
                <g id="Icon-24px" transform="translate(204.000000, 0.000000)">
                    <polygon id="Shape" points="0 0 36 0 36 36 0 36"></polygon>
                    <path d="M15.135,23.385 L17.25,25.5 L24.75,18 L17.25,10.5 L15.135,12.615 L19.005,16.5 L4.5,16.5 L4.5,19.5 L19.005,19.5 L15.135,23.385 L15.135,23.385 Z M28.5,4.5 L7.5,4.5 C5.835,4.5 4.5,5.85 4.5,7.5 L4.5,13.5 L7.5,13.5 L7.5,7.5 L28.5,7.5 L28.5,28.5 L7.5,28.5 L7.5,22.5 L4.5,22.5 L4.5,28.5 C4.5,30.15 5.835,31.5 7.5,31.5 L28.5,31.5 C30.15,31.5 31.5,30.15 31.5,28.5 L31.5,7.5 C31.5,5.85 30.15,4.5 28.5,4.5 L28.5,4.5 Z" id="Shape" fill="url(#linearGradient-1)"></path>
                </g>
            </g>
        </g>
    </g>
</svg>